HIERARCHY
ROOT pelvis
{
  OFFSET 0 100 0
  CHANNELS 6 Xposition Yposition Zposition Zrotation Xrotation Yrotation
  JOINT pelvis_right_femur
  {
    OFFSET -10.78128 -3.44521 -0.5502486
    CHANNELS 3 Zrotation Xrotation Yrotation
    JOINT right_femur_tibia
    {
      OFFSET -0.8047443 -44.0398 -0.1307829
      CHANNELS 3 Zrotation Xrotation Yrotation
      JOINT right_tibia_foot
      {
        OFFSET 3.006224 -47.83518 -5
        CHANNELS 3 Zrotation Xrotation Yrotation
        End Site
        {
          OFFSET 0 -5 15
        }
      }
    }
  }
  JOINT pelvis_left_femur
  {
    OFFSET 10.78128 -3.44521 -0.5502486
    CHANNELS 3 Zrotation Xrotation Yrotation
    JOINT left_femur_tibia
    {
      OFFSET 0.8047443 -44.0398 -0.1307829
      CHANNELS 3 Zrotation Xrotation Yrotation
      JOINT left_tibia_foot
      {
        OFFSET -4.370144 -48.10324 -4.275266
        CHANNELS 3 Zrotation Xrotation Yrotation
        End Site
        {
          OFFSET 0 -5 15
        }
      }
    }
  }
  JOINT pelvis_spine1
  {
    OFFSET 0 6.468898 -3.129235
    CHANNELS 3 Zrotation Xrotation Yrotation
    JOINT spine1
    {
      OFFSET 0 23.15396 4.99043
      CHANNELS 3 Zrotation Xrotation Yrotation
      JOINT spine2
      {
        OFFSET 0 20.79997 -5.064912
        CHANNELS 3 Zrotation Xrotation Yrotation
        JOINT neck
        {
          OFFSET 0 14.38658 9.616178
          CHANNELS 3 Zrotation Xrotation Yrotation
          End Site
          {
            OFFSET 0 20 0
          }
        }
      }
      JOINT right_manubrium
      {
        OFFSET -5.722621 16.35077 3.967754
        CHANNELS 3 Zrotation Xrotation Yrotation
        JOINT right_clavicle
        {
          OFFSET -13.16364 1.694482 -4.693211
          CHANNELS 3 Zrotation Xrotation Yrotation
          JOINT right_humerus
          {
            OFFSET -28.5034 -0.3100689 -2.792744
            CHANNELS 3 Zrotation Xrotation Yrotation
            JOINT right_radius
            {
              OFFSET -25.15693 0.02248979 -1.271978
              CHANNELS 3 Zrotation Xrotation Yrotation
              End Site
              {
                OFFSET -15 0 0
              }
            }
          }
        }
      }
      JOINT left_manubrium
      {
        OFFSET 5.722621 16.35077 3.967754
        CHANNELS 3 Zrotation Xrotation Yrotation
        JOINT left_clavicle
        {
          OFFSET 13.16364 1.694482 -4.693211
          CHANNELS 3 Zrotation Xrotation Yrotation
          JOINT left_humerus
          {
            OFFSET 29.39168 -1.063119 -2.237045
            CHANNELS 3 Zrotation Xrotation Yrotation
            JOINT left_radius
            {
              OFFSET 24.59957 -0.9528479 0.9047498
              CHANNELS 3 Zrotation Xrotation Yrotation
              End Site
              {
                OFFSET 15 -0 -0
              }
            }
          }
        }
      }
    }
  }
}
MOTION
Frames: 23
Frame Time: 0.0416666666667
44.13796 107.0877 2990.807 -0.04252111 -7.108481 -6.776182 2.361197 18.47238 1.586959 -0 20.26479 -0 -3.742466 -10.80847 -0.3804464 0.8142328 -24.7336 -4.695603 -0 15.68947 -0 -3.002292 -6.443534 19.22359 -1.758274 1.027554 5.228062 -1.3034 8.202175 -1.300633 3.544554 25.62174 3.753485 1.815754 -15.33284 7.462065 -0.2413865 -19.22227 9.698257 83.27781 21.36402 -3.270013 -0 0 19.79434 -20.70653 8.202248 12.55999 4.164322 -13.8543 -2.968558 -95.00819 24.26118 22.9832 0 0 -0.005246596 1.313304 14.44889 10.39189
44.48045 106.5451 2997.208 0.1557818 -7.736368 -6.826286 1.471541 17.90809 2.042702 -0 27.05374 -0 -2.634477 -8.553401 -1.057084 -0.1742909 -22.86423 -5.33765 -0 15.95154 -0 -3.384981 -6.927964 19.13431 -1.66788 0.8901449 5.359424 -1.332592 8.492036 -1.324169 3.470057 25.51336 3.727222 1.859296 -15.45985 7.33268 -0.3782169 -19.64874 9.803191 83.41523 21.07669 -3.249957 -0 0 20.09103 -20.94533 8.208352 12.65772 4.168991 -14.11354 -3.116888 -95.16437 23.58814 23.50489 -0 0 0.1897614 1.835915 14.56152 9.716002
44.82783 106.4886 3003.742 0.4062467 -8.428831 -6.608052 0.5227257 16.22997 2.553289 -0 34.99391 -0 -1.333283 -5.699434 -2.063438 -1.453467 -19.70023 -6.183986 -0 17.10044 -0 -3.894118 -7.657189 18.86077 -1.584975 0.7557021 5.34134 -1.293311 8.763797 -1.487793 3.385689 25.40924 3.742842 1.910505 -15.61158 7.235295 -0.5007986 -19.81732 9.8937 83.80043 20.87088 -3.738109 -0 0 19.8764 -21.04613 8.237459 12.58231 4.257905 -14.56136 -3.31649 -94.93994 22.9894 23.37223 0 0 -0.230515 2.520211 14.6995 8.845831
45.18304 106.9478 3010.349 0.704594 -8.998513 -6.103086 -0.3791367 13.27287 2.999688 -0 43.12694 -0 -0.0114177 -2.6254 -3.267509 -2.900243 -15.34111 -7.233309 -0 18.18371 -0 -4.335413 -8.766264 18.47686 -1.510806 0.6250598 5.173024 -1.184799 9.013318 -1.789665 3.292915 25.31179 3.799421 1.969115 -15.7878 7.171131 -0.6091727 -19.72656 9.969017 84.43038 20.74092 -4.726408 -0 0 19.15223 -21.00281 8.285302 12.33237 4.429298 -15.19314 -3.563726 -94.35336 22.46623 22.59797 0 0 -1.256027 3.364016 14.85958 7.784817
45.55164 107.8392 3016.899 1.012156 -9.224202 -5.344511 -1.05842 8.953255 3.299109 -0 50.02942 -0 1.039747 0.08738725 -4.455848 -4.336497 -10.05008 -8.488696 -0 18.58589 -0 -4.499223 -10.29807 18.08977 -1.444151 0.4949963 4.863889 -1.008102 9.249691 -2.231427 3.188227 25.21271 3.898484 2.035957 -15.98878 7.136329 -0.7025464 -19.39085 10.03449 85.30397 20.67222 -6.207846 -0 0 17.93778 -20.83706 8.364582 11.91932 4.678624 -16.01406 -3.860153 -93.41997 21.98317 21.20814 0 0 -2.890531 4.366266 15.02119 6.536554
45.92925 108.9526 3023.211 1.240593 -8.903252 -4.440349 -1.294347 3.523735 3.405917 -0 53.77072 -0 1.417584 1.709888 -5.308458 -5.494628 -4.474897 -9.882419 -0 18.07196 -0 -4.213106 -12.12051 17.81668 -1.382315 0.360068 4.435778 -0.7676999 9.489869 -2.81145 3.06551 25.09664 4.041716 2.112157 -16.21421 7.123049 -0.7789122 -18.84385 10.09951 86.4101 20.64281 -8.155276 -0 0 16.28394 -20.59228 8.498647 11.36934 4.995695 -17.02671 -4.207616 -92.17081 21.48027 19.26435 0 0 -5.122868 5.51554 15.15079 5.118182
46.29218 109.9873 3029.152 1.289985 -7.997409 -3.540473 -0.9593515 -2.357417 3.274233 -0 52.76507 -0 0.8535037 1.829314 -5.56961 -6.111294 0.4995223 -11.18575 -0 16.74056 -0 -3.49139 -13.9509 17.65903 -1.321884 0.2145642 3.928311 -0.4753249 9.75238 -3.512504 2.919595 24.94693 4.226433 2.198046 -16.462 7.119973 -0.8363505 -18.149 10.17486 87.70735 20.62438 -10.48299 -0 0 14.30166 -20.32643 8.710011 10.72847 5.360056 -18.21138 -4.601527 -90.68333 20.89097 16.9064 0 0 -7.872559 6.776504 15.21172 3.575527
46.60258 110.6601 3034.723 1.129869 -6.70109 -2.755226 -0.1625361 -8.04183 2.853009 -0 47.09377 -0 -0.5053306 0.7667818 -5.290445 -6.13157 4.384131 -12.10552 -0 14.86331 -0 -2.579875 -15.56591 17.45104 -1.259514 0.05437108 3.394836 -0.1504522 10.04992 -4.295998 2.749803 24.7534 4.442355 2.292572 -16.72881 7.114479 -0.8753965 -17.39641 10.26887 89.11773 20.5884 -13.03547 -0 0 12.16113 -20.09409 9.005209 10.05657 5.742143 -19.51646 -5.027494 -89.08829 20.16943 14.35758 0 0 -10.96287 8.091881 15.18155 1.979013
46.8198 110.8054 3040.02 0.814279 -5.290943 -2.122533 0.8389605 -13.33758 2.166467 -0 38.46125 -0 -2.236609 -0.7391492 -4.75983 -5.740748 7.41427 -12.53062 -0 12.85648 -0 -1.760949 -16.93726 17.02249 -1.192808 -0.1219101 2.88729 0.1849049 10.38499 -5.111438 2.560618 24.51647 4.673757 2.393632 -17.01186 7.096293 -0.8993879 -16.67853 10.38472 90.54607 20.51675 -15.62776 -0 0 10.0459 -19.92809 9.36931 9.410004 6.111776 -20.87115 -5.464893 -87.5328 19.31109 11.8648 0 0 -14.16297 9.400555 15.0621 0.401378
46.90789 110.3904 3045.183 0.4237626 -3.995902 -1.634653 1.820915 -18.26833 1.294745 -0 28.81883 -0 -3.953235 -2.037982 -4.246121 -5.167953 10.04475 -12.4881 -0 11.26986 -0 -1.241911 -18.09237 16.28179 -1.12096 -0.3126402 2.446046 0.5110219 10.75124 -5.90959 2.359488 24.24429 4.904538 2.498525 -17.30843 7.059507 -0.9116603 -16.06915 10.521 91.9011 20.409 -18.09118 -0 0 8.111936 -19.83957 9.775684 8.831771 6.444624 -22.20313 -5.892292 -86.13745 18.35143 9.636532 0 0 -17.25085 10.64753 14.87213 -1.09282
46.8452 109.4889 3050.381 0.03548046 -3.008852 -1.262528 2.630355 -22.66288 0.3265722 -0 19.78712 -0 -5.365949 -2.691101 -3.909241 -4.587789 12.47789 -12.00637 -0 10.71988 -0 -1.179362 -18.97104 15.20171 -1.04479 -0.5132068 2.09906 0.8112225 11.13598 -6.647104 2.155215 23.94946 5.120597 2.604005 -17.61422 7.002452 -0.9139745 -15.61874 10.67297 93.10359 20.28089 -20.28792 -0 0 6.478473 -19.82592 10.19436 8.352036 6.723186 -23.44527 -6.28957 -84.98283 17.35259 7.824159 0 0 -20.03788 11.78392 14.63838 -2.446152
46.63638 108.2732 3055.793 -0.273579 -2.510553 -0.9675079 3.177597 -26.02968 -0.5872198 -0 12.91061 -0 -6.233268 -2.484983 -3.840333 -4.142912 14.58013 -11.14779 -0 11.86878 -0 -1.655691 -19.402 13.8739 -0.9661035 -0.7166911 1.863248 1.070945 11.52252 -7.286067 1.957532 23.6483 5.309458 2.706288 -17.9224 6.926578 -0.908273 -15.35773 10.83348 94.08985 20.15495 -22.10908 -0 0 5.230919 -19.87557 10.59294 7.989978 6.936251 -24.53736 -6.638796 -84.11551 16.38705 6.526407 0 0 -22.3671 12.77039 14.39271 -3.612968
46.31569 106.9993 3061.556 -0.4458484 -2.60194 -0.7170187 3.488961 -27.7587 -1.216223 -0 9.315834 -0 -6.429237 -1.546273 -4.068914 -3.914298 15.97144 -10.05981 -0 15.2393 -0 -2.604833 -19.17673 12.53868 -0.8867457 -0.9153303 1.745412 1.277819 11.89427 -7.795858 1.775998 23.35887 5.460468 2.801368 -18.22346 6.834877 -0.8987423 -15.29925 10.99442 94.81684 20.04955 -23.47729 -0 0 4.420109 -19.97423 10.93993 7.755179 7.078711 -25.43187 -6.926686 -83.55437 15.51845 5.792447 0 0 -24.11961 13.58332 14.16716 -4.56744
45.93039 105.944 3067.708 -0.4803818 -3.20686 -0.5044148 3.722831 -27.55564 -1.357371 -0 8.902195 -0 -6.066472 -0.3697554 -4.532801 -3.857925 16.27062 -8.9442 -0 20.90513 -0 -3.803494 -18.1936 11.48442 -0.8078979 -1.102298 1.742956 1.423224 12.23929 -8.157784 1.618094 23.09696 5.566294 2.885658 -18.50614 6.7305 -0.8919551 -15.4403 11.14878 95.26777 19.97141 -24.3552 -0 0 4.058273 -20.11152 11.21193 7.648629 7.151392 -26.1022 -7.147519 -83.29372 14.78485 5.621253 0 0 -25.23197 14.21821 13.98614 -5.307715
45.51484 105.3233 3074.168 -0.434181 -4.098378 -0.3633932 4.066564 -25.60302 -0.9481423 -0 10.3839 -0 -5.463001 0.3965244 -5.081459 -3.831091 15.2938 -7.98566 -0 28.45249 -0 -4.976955 -16.51857 10.91444 -0.7297844 -1.27278 1.849762 1.501773 12.5529 -8.364076 1.488122 22.87252 5.6232 2.956308 -18.75856 6.61527 -0.8951342 -15.77049 11.29225 95.44423 19.91566 -24.73521 -0 0 4.134478 -20.28835 11.39912 7.66922 7.157813 -26.54055 -7.3025 -83.31496 14.19454 5.983404 0 0 -25.68908 14.68138 13.861 -5.845119
45.08006 105.2471 3080.755 -0.3780551 -5.034098 -0.3636484 4.612538 -22.26508 -0.05206223 -0 12.33076 -0 -4.950401 0.2303182 -5.538577 -3.699883 13.01617 -7.31929 -0 37.16767 -0 -5.904789 -14.31724 10.93135 -0.6513531 -1.424496 2.067609 1.507582 12.83857 -8.409178 1.38728 22.68781 5.629087 3.011127 -18.96932 6.487745 -0.9140282 -16.29078 11.42451 95.34424 19.87173 -24.60574 -0 0 4.652711 -20.52394 11.50524 7.82581 7.098042 -26.74397 -7.395434 -83.6085 13.73361 6.86931 0 0 -25.48335 14.97366 13.79001 -6.183437
44.62381 105.7053 3087.243 -0.3624049 -5.833529 -0.5842224 5.308718 -17.85776 1.160245 -0 13.79079 -0 -4.738681 -1.104988 -5.755224 -3.397735 9.487174 -6.996356 -0 45.95799 -0 -6.454892 -11.81739 11.54777 -0.570186 -1.55815 2.410086 1.433196 13.10675 -8.28572 1.313917 22.53756 5.582431 3.048908 -19.13053 6.342856 -0.9513661 -17.02148 11.54929 94.95347 19.82819 -23.93763 -0 0 5.647637 -20.8523 11.54309 8.139489 6.966697 -26.70751 -7.429623 -84.18393 13.3734 8.310435 0 0 -24.59299 15.08552 13.7627 -6.312356
44.149 106.5585 3093.456 -0.4085469 -6.379933 -1.074182 5.98464 -12.73945 2.381185 -0 14.20835 -0 -4.881535 -3.457198 -5.635696 -2.914871 4.905759 -6.923778 -0 53.1615 -0 -6.590592 -9.342163 12.63179 -0.4834324 -1.677323 2.890042 1.275333 13.37041 -7.994158 1.263472 22.41121 5.484807 3.070412 -19.24221 6.175051 -1.005714 -17.98256 11.67262 94.26742 19.77289 -22.72079 -0 0 7.145949 -21.30288 11.5292 8.626611 6.759388 -26.43675 -7.409096 -85.05152 13.07244 10.33379 0 0 -23.02046 15.01184 13.76462 -6.224849
43.67818 107.5594 3099.357 -0.5016926 -6.638794 -1.816455 6.434537 -7.390729 3.233587 -0 13.44618 -0 -5.262622 -6.255769 -5.165132 -2.27354 -0.2898404 -6.868527 -0 56.9091 -0 -6.373599 -7.274833 13.89883 -0.3892324 -1.787424 3.50374 1.041394 13.64001 -7.554429 1.228807 22.29587 5.343923 3.078892 -19.31406 5.982315 -1.071115 -19.16713 11.80034 93.31812 19.69325 -21.00921 -0 0 9.116571 -21.88166 11.48047 9.279715 6.480545 -25.96287 -7.341164 -86.19495 12.77998 12.90074 0 0 -20.84333 14.76789 13.78041 -5.936629
43.25143 108.4233 3105.056 -0.6003863 -6.660614 -2.726649 6.535023 -2.276761 3.468846 -0 11.83167 -0 -5.674805 -8.798992 -4.401621 -1.505087 -5.550969 -6.600712 -0 56.06689 -0 -5.916876 -5.902348 15.056 -0.2877611 -1.893508 4.226939 0.7493742 13.91979 -7.005195 1.201922 22.17989 5.173154 3.079127 -19.36179 5.767955 -1.138096 -20.53329 11.93623 92.17444 19.58075 -18.92342 -0 0 11.46131 -22.56789 11.41254 10.06498 6.144715 -25.34013 -7.236112 -87.56177 12.44833 15.89206 0 0 -18.2167 14.38797 13.79604 -5.485151
42.91029 108.9081 3110.719 -0.6673867 -6.522949 -3.695802 6.307289 2.349594 3.105761 -0 9.875238 -0 -5.978374 -10.71466 -3.431906 -0.6448917 -10.49333 -6.058534 -0 50.8397 -0 -5.304394 -5.279743 15.98135 -0.181861 -1.99763 5.021876 0.4224844 14.20584 -6.39308 1.176368 22.05562 4.988477 3.07553 -19.39997 5.540285 -1.19492 -22.01288 12.08085 90.91995 19.43772 -16.61689 -0 0 14.04159 -23.3239 11.33976 10.9338 5.7721 -24.62894 -7.104054 -89.07271 12.05052 19.13612 0 0 -15.33517 13.90865 13.79979 -4.91009
42.68556 108.8583 3116.463 -0.6859532 -6.284599 -4.634385 5.861601 6.442462 2.36752 -0 8.021444 -0 -6.150127 -12.05047 -2.350151 0.2468054 -14.96423 -5.360701 -0 42.45721 -0 -4.571167 -5.265307 16.7325 -0.07734143 -2.097384 5.845164 0.08460953 14.4858 -5.763782 1.148586 21.92019 4.806176 3.070904 -19.43728 5.311681 -1.227955 -23.52247 12.23147 89.63181 19.28227 -14.24503 -0 0 16.70594 -24.10563 11.27693 11.83435 5.383972 -23.88194 -6.952185 -90.63509 11.59294 22.44145 0 0 -12.39957 13.35336 13.78131 -4.234876
42.59325 108.2248 3122.321 -0.654132 -6.000201 -5.486759 5.306369 9.980119 1.5424 -0 6.710767 -0 -6.205412 -12.98738 -1.274082 1.057382 -18.84886 -4.713769 -0 32.61842 -0 -3.755067 -5.644454 17.41818 0.0172944 -2.186338 6.651085 -0.2409264 14.74033 -5.159699 1.117881 21.7749 4.642076 3.066374 -19.47598 5.097623 -1.222395 -24.96915 12.38253 88.37316 19.14805 -11.95443 -0 0 19.30044 -24.867 11.24018 12.71576 5.001085 -23.14109 -6.784559 -92.15143 11.11783 25.61335 0 0 -9.605813 12.73008 13.73076 -3.464018
